# xmcd
#
# Track frame offsets:
#	150
#	17150
#	31722
#	66427
#	91852
#
# Disc length: 1686 seconds
#
# Revision: 0
# Processed by: cddbd v1.5.1PL2 Copyright (c) Steve Scherf et al.
# Submitted via: dBpowerAMP V4.0
#
DISCID=34069405
DTITLE=Aretha Franklin - Rock Steady (Sure is Pure Remix)
DYEAR=1994
DGENRE=Blues
TTITLE0=Rock Steady (Sure is Pure Remix Edit)
TTITLE1=Rock Steady (Original Version)
TTITLE2=Rock Steady (Sure is Pure Remix)
TTITLE3=Rock Steady (Sure is Pure Dub)
TTITLE4=Rock Steady (Instrumental)
EXTD=
EXTT0=
EXTT1=
EXTT2=
EXTT3=
EXTT4=
PLAYORDER=
